<svg width="219" height="219" viewBox="0 0 219 219" fill="none" xmlns="http://www.w3.org/2000/svg">
<path d="M106.5 0L218.153 111.653L111.653 218.153L0 106.5L106.5 0Z" fill="#858480"/>
<path d="M52.8 143V77.6H65.9L77.5 109.6C78.2333 111.667 78.9333 113.8 79.6 116C80.2666 118.133 80.9666 120.267 81.7 122.4H82.1C82.8333 120.267 83.5 118.133 84.1 116C84.7666 113.8 85.4666 111.667 86.2 109.6L97.5 77.6H110.7V143H100V113.1C100 111.567 100.033 109.9 100.1 108.1C100.233 106.3 100.367 104.5 100.5 102.7C100.633 100.833 100.8 99.0333 101 97.3C101.2 95.5 101.367 93.8333 101.5 92.3H101.1L95.8 107.5L85.1 136.9H78.2L67.4 107.5L62.2 92.3H61.8C61.9333 93.8333 62.0666 95.5 62.2 97.3C62.4 99.0333 62.5666 100.833 62.7 102.7C62.9 104.5 63.0333 106.3 63.1 108.1C63.2333 109.9 63.3 111.567 63.3 113.1V143H52.8Z" fill="#01161D"/>
<path d="M146.612 144.2C142.345 144.2 138.078 143.433 133.812 141.9C129.612 140.3 125.845 137.933 122.512 134.8L130.912 124.7C133.245 126.7 135.812 128.333 138.612 129.6C141.478 130.867 144.278 131.5 147.012 131.5C150.078 131.5 152.345 130.933 153.812 129.8C155.345 128.667 156.112 127.133 156.112 125.2C156.112 124.2 155.878 123.333 155.412 122.6C155.012 121.867 154.378 121.233 153.512 120.7C152.712 120.1 151.712 119.567 150.512 119.1C149.378 118.567 148.112 118 146.712 117.4L138.212 113.8C136.545 113.133 134.912 112.267 133.312 111.2C131.778 110.133 130.378 108.9 129.112 107.5C127.912 106.033 126.945 104.367 126.212 102.5C125.478 100.567 125.112 98.4 125.112 96C125.112 93.3333 125.678 90.8333 126.812 88.5C127.945 86.1 129.545 84.0333 131.612 82.3C133.678 80.5 136.112 79.1 138.912 78.1C141.778 77.1 144.912 76.6 148.312 76.6C152.112 76.6 155.845 77.3333 159.512 78.8C163.245 80.2667 166.512 82.4 169.312 85.2L161.812 94.5C159.678 92.8333 157.545 91.5667 155.412 90.7C153.278 89.7667 150.912 89.3 148.312 89.3C145.778 89.3 143.745 89.8333 142.212 90.9C140.745 91.9 140.012 93.3333 140.012 95.2C140.012 96.2 140.245 97.0667 140.712 97.8C141.245 98.4667 141.945 99.1 142.812 99.7C143.745 100.233 144.812 100.767 146.012 101.3C147.212 101.767 148.512 102.3 149.912 102.9L158.312 106.3C162.312 107.9 165.445 110.1 167.712 112.9C170.045 115.7 171.212 119.4 171.212 124C171.212 126.733 170.645 129.333 169.512 131.8C168.445 134.2 166.845 136.333 164.712 138.2C162.645 140 160.078 141.467 157.012 142.6C153.945 143.667 150.478 144.2 146.612 144.2Z" fill="#C4C4C4"/>
</svg>
